<?xml version="1.0" encoding="UTF-8" standalone="no"?>
<!-- Created with Inkscape (http://www.inkscape.org/) -->

<svg
   version="1.1"
   id="svg1091"
   width="720.96002"
   height="720.96002"
   viewBox="0 0 720.96002 720.96002"
   sodipodi:docname="insta2.svg"
   inkscape:version="1.1.1 (3bf5ae0d25, 2021-09-20)"
   xmlns:inkscape="http://www.inkscape.org/namespaces/inkscape"
   xmlns:sodipodi="http://sodipodi.sourceforge.net/DTD/sodipodi-0.dtd"
   xmlns="http://www.w3.org/2000/svg"
   xmlns:svg="http://www.w3.org/2000/svg">
  <defs
     id="defs1095" />
  <sodipodi:namedview
     id="namedview1093"
     pagecolor="#ffffff"
     bordercolor="#666666"
     borderopacity="1.0"
     inkscape:pageshadow="2"
     inkscape:pageopacity="0.0"
     inkscape:pagecheckerboard="0"
     showgrid="false"
     inkscape:zoom="0.90851085"
     inkscape:cx="353.32545"
     inkscape:cy="360.48001"
     inkscape:window-width="1600"
     inkscape:window-height="840"
     inkscape:window-x="0"
     inkscape:window-y="0"
     inkscape:window-maximized="1"
     inkscape:current-layer="g1097" />
  <g
     inkscape:groupmode="layer"
     inkscape:label="Image"
     id="g1097">
    <g
       id="g1101"
       transform="translate(1.5971909,1.69087)"
       style="fill:#e882e8;fill-opacity:1">
      <path
         style="fill:#e882e8;fill-opacity:1;stroke-width:0.32"
         d="m 344.64001,720.32399 c -32.91112,-1.37479 -68.08139,-7.97395 -99.84,-18.73344 C 126.78665,661.60885 37.090075,562.26085 9.4891535,440.96001 -12.098549,346.08612 5.2848385,246.89617 57.746958,165.6 115.45495,76.174754 209.53651,16.737974 314.56001,3.3563159 453.11905,-14.298302 588.61042,49.043435 664.00373,166.72 c 31.99015,49.93138 50.76451,106.15605 55.56375,166.40001 0.74953,9.40909 0.82912,12.0312 0.83526,27.52 0.006,15.72522 -0.0619,17.95427 -0.83619,27.36 -3.57434,43.41927 -13.65408,82.83181 -30.93546,120.96 C 642.25247,611.28597 550.2389,686.623 441.28001,711.48114 c -26.22617,5.9833 -49.55917,8.71501 -76.64,8.97264 -7.568,0.072 -16.568,0.0134 -20,-0.12979 z m 40.16,-40.66452 c 48.49194,-3.78579 94.22173,-17.8695 135.48951,-41.72755 86.91776,-50.2496 145.40976,-138.16458 157.76967,-237.13191 1.83417,-14.6864 2.35043,-23.56512 2.35369,-40.48 0.003,-17.12621 -0.48909,-25.20912 -2.49513,-40.96066 C 670.64911,262.28651 648.05237,208.47958 612.13557,162.72 596.88891,143.29511 577.49182,123.9365 557.76002,108.45234 490.30024,55.514539 404.53464,32.102071 318.72001,43.198737 225.29895,55.27899 141.65753,108.58162 90.496489,188.64001 c -25.498858,39.9014 -41.84052,85.28212 -47.591003,132.16 -1.792026,14.60858 -2.333325,23.87498 -2.336605,40 -0.0033,16.38128 0.524237,24.94899 2.492624,40.48 7.280128,57.44176 29.818548,111.24794 65.747665,156.96001 15.4144,19.61148 35.02514,39.1846 54.55083,54.44611 52.94875,41.38541 117.05743,64.95219 184.00001,67.63968 9.92707,0.39853 27.8967,0.0787 37.44,-0.66634 z m -141.12,-131.19462 c -8.78935,-0.6648 -17.85143,-3.27955 -25.76,-7.43277 -4.02227,-2.11229 -4.00074,-2.09975 -6.4,-3.73123 -10.47477,-7.12272 -18.23571,-15.85402 -23.7849,-26.75866 -2.40196,-4.72006 -4.78566,-11.3465 -5.69165,-15.82218 -1.46713,-7.24774 -1.36171,1.58272 -1.47645,-123.68 -0.0969,-105.8014 -0.0587,-117.14653 0.40612,-120.48 0.28221,-2.024 0.63807,-4.184 0.7908,-4.8 0.90544,-3.65201 1.36296,-5.40642 1.66899,-6.4 0.76814,-2.49386 1.3269,-4.01597 1.57997,-4.304 0.14692,-0.1672 0.26712,-0.49245 0.26712,-0.72278 0,-0.495 3.0475,-6.85254 4.49306,-9.37322 4.32644,-7.54415 11.33183,-15.34548 18.66397,-20.78453 3.16803,-2.35007 3.69784,-2.68921 7.7392,-4.95404 6.85868,-3.84368 15.07851,-6.6622 23.02377,-7.89468 4.17524,-0.64768 237.212,-0.67095 240.64,-0.024 5.92423,1.11798 11.89677,2.76684 14.76836,4.07716 0.55462,0.25306 1.11318,0.46012 1.24131,0.46012 1.00886,0 11.10969,5.6484 14.22659,7.95554 4.06192,3.00669 9.16688,7.84569 12.72077,12.05811 3.62176,4.29289 8.40256,12.36318 10.98675,18.54635 0.78934,1.88866 2.6111,8.00769 3.14397,10.56 0.18371,0.88 0.47549,2.24943 0.64838,3.04319 0.96384,4.42433 1.01258,11.22685 0.89309,124.63681 -0.0903,85.77075 -0.21472,115.0224 -0.49494,116.4 -0.20586,1.012 -0.50343,2.596 -0.66132,3.52 -2.42681,14.20404 -11.2294,29.45037 -22.59296,39.13162 -1.232,1.0496 -2.312,1.98576 -2.4,2.08035 -0.32118,0.34522 -4.68931,3.42362 -6.47097,4.56035 -3.74755,2.39101 -9.85005,5.25047 -14.48509,6.7873 -4.23613,1.40458 -5.17952,1.64608 -10.88394,2.78659 l -3.52,0.70378 -115.04,0.0484 c -63.272,0.0266 -116.48,-0.0604 -118.24,-0.19357 z m 229.6,-35.012 c 8.02333,-1.10292 14.38359,-4.0986 19.88205,-9.36448 3.18096,-3.0464 6.97824,-8.92199 8.32947,-12.88836 0.98816,-2.90054 1.19584,-3.74185 1.69837,-6.88 0.46119,-2.87987 0.50333,-10.59465 0.42128,-77.12 l -0.0912,-73.92 -26.22211,-0.0819 c -14.42218,-0.045 -26.33533,0.0314 -26.47366,0.16967 -0.13837,0.13836 0.085,1.1832 0.49638,2.32188 1.93222,5.34845 3.7489,11.88288 4.40102,15.83034 0.17447,1.056 0.5386,3.288 0.80916,4.96 0.77094,4.764 0.93654,19.01094 0.28121,24.19568 -0.56528,4.47267 -1.02909,7.32768 -1.47577,9.08432 -0.15661,0.616 -0.51844,2.128 -0.804,3.36 -0.28557,1.232 -0.7386,2.96 -1.00676,3.84 -0.75753,2.48608 -1.91673,6.00493 -2.2678,6.88394 -2.15514,5.39635 -2.58151,6.3623 -4.40013,9.96883 -1.80461,3.57885 -4.74167,8.41786 -7.81754,12.88003 -4.06701,5.90003 -11.03085,13.32003 -17.53241,18.6809 -2.25437,1.85881 -9.55252,7.1063 -9.8834,7.1063 -0.1176,0 -0.44115,0.20243 -0.719,0.44989 -0.70554,0.62826 -3.3906,2.11949 -7.70519,4.27923 -6.74176,3.37475 -11.29683,5.13107 -18.08,6.97123 -9.59171,2.60205 -17.53869,3.51776 -28,3.22637 -8.17606,-0.22774 -12.91718,-0.71529 -17.44,-1.7935 -0.704,-0.16784 -2.288,-0.53738 -3.52,-0.82122 -2.58858,-0.59635 -2.95984,-0.70576 -7.68,-2.26329 -3.3288,-1.09844 -7.47863,-2.6609 -8.71737,-3.28221 -9.43975,-4.73469 -12.1337,-6.27821 -17.04263,-9.76474 -1.496,-1.06253 -2.792,-2.01091 -2.88,-2.10752 -0.088,-0.0966 -1.24,-1.03926 -2.56,-2.09472 -2.91278,-2.32909 -10.55393,-9.81001 -12.32,-12.06169 -0.704,-0.89757 -1.42592,-1.79076 -1.60427,-1.9849 -0.42354,-0.46099 -2.72624,-3.43494 -3.4068,-4.39994 -9.28747,-13.16873 -15.15391,-27.58806 -17.36133,-42.67299 -2.00615,-13.70944 -1.32396,-26.07494 2.18028,-39.52 0.98194,-3.76752 3.02682,-9.93811 3.47746,-10.49357 0.21522,-0.26525 0.22497,-0.52413 0.0272,-0.72189 -0.19408,-0.19408 -10.02353,-0.27798 -26.53043,-0.22643 l -26.22211,0.0819 v 75.68 c 0,73.09584 0.0206,75.75648 0.60233,77.92 2.32274,8.63796 6.0087,14.40327 12.68704,19.84413 2.6815,2.18464 7.94659,4.78071 11.80357,5.82003 4.90276,1.32109 2.80486,1.29744 118.42706,1.33476 95.00048,0.0307 111.36119,-0.0304 114.24,-0.42608 z m -104.8,-81.46778 c 4.60371,-0.80122 6.99635,-1.36899 10.4,-2.46784 1.50544,-0.48605 1.63306,-0.53386 4.48,-1.67923 9.06454,-3.64679 18.35207,-10.43818 24.2441,-17.72826 1.00896,-1.24835 1.92544,-2.34173 2.03661,-2.42973 0.1112,-0.088 1.26947,-1.816 2.57395,-3.84 4.94121,-7.66675 7.56003,-14.37856 9.42672,-24.16 0.42563,-2.2304 0.54454,-4.54006 0.5271,-10.24 -0.0227,-7.44304 -0.10941,-8.23613 -1.66105,-15.2 -1.06999,-4.80205 -4.19754,-12.25661 -6.95034,-16.56621 -0.59238,-0.92742 -1.07709,-1.75763 -1.07709,-1.84489 0,-0.17517 -2.9823,-4.332 -3.99817,-5.5728 -8.42973,-10.29622 -19.81236,-17.81394 -32.16183,-21.2415 -6.17318,-1.71334 -9.51728,-2.13307 -16.96,-2.12872 -6.48582,0.004 -7.80522,0.14486 -14.72,1.5738 -3.1103,0.64275 -8.69126,2.71637 -12.96717,4.81799 -15.31085,7.52534 -26.70383,20.75971 -32.23268,37.44233 -0.97881,2.95344 -1.7269,6.26739 -2.46438,10.9169 -0.43643,2.75152 -0.43311,13.20473 0.005,15.9262 0.95548,5.9345 1.30719,7.43405 2.8232,12.0369 3.72302,11.30371 10.24238,20.67648 20.31066,29.20026 1.11156,0.94102 5.7016,4.09974 7.19556,4.95174 4.75331,2.71082 11.08137,5.48807 14.35126,6.29847 6.01376,1.49043 8.74218,1.99324 13.0585,2.40646 2.17648,0.20838 11.73478,-0.11942 13.76,-0.47187 z m 128.48,-169.70774 c 0,-28.50643 -0.0314,-30.20927 -0.56,-30.32 -0.308,-0.0645 -13.88,-0.0453 -30.16,0.0427 l -29.6,0.16 -0.0825,29.76 c -0.0454,16.368 -0.0138,29.94 0.07,30.16 0.12051,0.31608 6.46515,0.4 30.24252,0.4 h 30.09005 z"
         id="path1105" />
      <path
         style="fill:#e882e8;fill-opacity:1;stroke-width:0.32"
         d="m 348.80001,720.29784 c -28.54855,-0.83721 -58.88946,-5.55788 -87.04,-13.54236 C 148.56891,674.65055 57.461413,587.94814 19.616758,476.32001 5.9079224,435.88388 -0.37008827,394.2323 0.709575,350.88001 2.4902844,279.37823 25.718768,209.89773 67.304754,151.68207 126.00943,69.502207 215.62932,15.928453 315.36001,3.3974699 c 16.89261,-2.1225274 24.82605,-2.57327765 45.28,-2.57265436 20.38813,6.208e-4 27.86032,0.42714556 44.96,2.56637976 C 511.55259,16.646272 606.0708,76.436764 663.96699,166.82941 c 38.79777,60.57448 58.4426,131.74867 56.33591,204.10769 -2.10013,72.13376 -25.34947,141.05619 -67.25344,199.37191 -62.12128,86.45117 -158.49652,140.81565 -264.24945,149.0609 -7.39722,0.57673 -26.25766,1.32637 -30.4,1.20829 -0.792,-0.0224 -5.112,-0.14874 -9.6,-0.28036 z m 22.4,-39.80701 c 30.00906,-0.69091 64.07319,-6.95212 93.85005,-17.25017 88.72922,-30.68621 159.96711,-99.27482 193.97434,-186.76065 11.44208,-29.43545 18.23127,-59.57405 20.86858,-92.64 0.90086,-11.29472 0.81696,-36.84301 -0.1592,-48.48 C 675.20674,281.39274 658.56773,232.02974 629.88136,187.46254 578.58296,107.76531 494.60517,54.69644 401.12001,42.899297 c -15.03699,-1.897561 -23.2056,-2.372739 -40.8,-2.373401 -17.82909,-6.4e-4 -25.30278,0.455923 -41.28,2.521916 -62.36752,8.064663 -119.89012,33.906913 -168.32001,75.618408 -8.69007,7.48455 -25.06307,23.87272 -32.34381,32.37378 -41.825557,48.83589 -67.60111,106.49076 -75.479693,168.83329 -1.893328,14.98173 -2.369897,23.17587 -2.370985,40.76672 -9.6e-4,17.52534 0.443331,25.08595 2.379414,40.48 7.849469,62.4121 34.437521,121.76618 75.830084,169.28001 59.40116,68.18557 143.24722,107.77501 233.425,110.21584 4.576,0.12387 9.112,0.18371 10.08,0.13299 0.968,-0.0507 5,-0.16682 8.96,-0.25802 z m -129.76,-132.65014 c -0.352,-0.15162 -1.31463,-0.28583 -2.13917,-0.29818 -0.82455,-0.0125 -1.87556,-0.1656 -2.33559,-0.34051 -0.46002,-0.17488 -1.5854,-0.45546 -2.50083,-0.62346 -3.1616,-0.58028 -5.57819,-1.26236 -7.02007,-1.9814 -0.30561,-0.15242 -0.77557,-0.27712 -1.04434,-0.27712 -0.26878,0 -0.73873,-0.13703 -1.04435,-0.30452 -0.30561,-0.16745 -1.13165,-0.54492 -1.83565,-0.83881 -1.82984,-0.76384 -4.7171,-2.07991 -5.28,-2.40669 -0.264,-0.15328 -1.056,-0.57178 -1.76,-0.92999 -1.51297,-0.76985 -2.20686,-1.18851 -3.57865,-2.1592 -0.56026,-0.39644 -1.17226,-0.7208 -1.36,-0.7208 -0.18775,0 -0.34135,-0.144 -0.34135,-0.32 0,-0.176 -0.216,-0.32 -0.48,-0.32 -0.264,0 -0.48,-0.1343 -0.48,-0.29843 0,-0.16413 -0.2551,-0.37939 -0.56689,-0.47837 -0.31179,-0.0989 -1.01362,-0.57667 -1.55963,-1.06156 -0.54601,-0.4849 -1.69491,-1.42679 -2.55311,-2.09306 -2.14023,-1.66163 -7.65734,-7.30086 -9.61572,-9.82858 -1.92793,-2.48844 -4.90465,-6.66096 -4.90465,-6.87494 0,-0.0839 -0.47266,-0.91142 -1.05035,-1.83885 -1.75646,-2.81981 -5.34965,-10.66544 -5.34965,-11.68083 0,-0.22774 -0.12608,-0.6641 -0.28018,-0.96973 -0.2687,-0.53289 -0.89584,-2.63664 -1.59654,-5.35565 -0.56323,-2.18553 -1.28502,-5.98566 -1.5499,-8.16 -0.32976,-2.70694 -0.33186,-233.43025 -0.002,-236.16 0.47146,-3.90324 2.33475,-11.90162 3.14859,-13.51566 0.15419,-0.30561 0.28027,-0.77557 0.28027,-1.04434 0,-0.26878 0.13702,-0.73873 0.30449,-1.04435 0.16748,-0.30561 0.53815,-1.13165 0.82371,-1.83565 1.5252,-3.76002 2.01286,-4.74096 5.08259,-10.22371 0.19206,-0.34304 0.4597,-0.77504 0.59476,-0.96 0.13506,-0.18496 1.05614,-1.48829 2.04686,-2.89629 0.99071,-1.408 1.88821,-2.632 1.99444,-2.72 0.10623,-0.088 0.76474,-0.88 1.46336,-1.76 1.5261,-1.92232 6.45997,-6.85351 8.66398,-8.65927 3.92629,-3.21683 9.01355,-6.55849 12.78581,-8.39859 4.36809,-2.13075 7.76068,-3.53507 9.92,-4.10627 0.352,-0.0931 0.928,-0.2821 1.28,-0.41998 1.52236,-0.5963 3.57543,-1.06405 9.44,-2.1507 2.86592,-0.53104 9.75585,-0.56392 120.32,-0.57424 111.46493,-0.0104 117.43866,0.0175 120.48,0.56375 5.66301,1.01706 6.06468,1.09849 7.04,1.42714 0.528,0.17792 1.608,0.50295 2.4,0.72228 0.792,0.21933 1.89376,0.59613 2.44836,0.83733 0.55462,0.2412 1.23011,0.43855 1.50112,0.43855 0.271,0 0.58176,0.144 0.69052,0.32 0.10877,0.176 0.41268,0.32 0.67536,0.32 0.57136,0 6.98452,3.10482 9.24464,4.47565 0.88,0.53375 1.852,1.05787 2.16,1.16472 0.308,0.10685 0.56,0.32148 0.56,0.47695 0,0.15547 0.15168,0.28268 0.33703,0.28268 0.18537,0 1.42829,0.828 2.76205,1.84 1.33372,1.012 2.83526,2.128 3.33667,2.48 0.50144,0.352 2.76457,2.512 5.02915,4.8 3.93827,3.97897 7.32883,8.18764 9.6824,12.01869 0.60099,0.97829 1.26454,2.05829 1.47456,2.4 0.43888,0.71402 2.80634,5.51811 3.53894,7.18131 0.27136,0.616 0.6162,1.37004 0.76628,1.67565 0.15011,0.30562 0.27292,0.71585 0.27292,0.91164 0,0.19579 0.19735,0.80975 0.43853,1.36434 0.24122,0.5546 0.61802,1.65637 0.83735,2.44837 0.21932,0.792 0.5432,1.872 0.71971,2.4 0.17648,0.528 0.45213,1.608 0.61254,2.4 0.16042,0.792 0.52688,2.592 0.81434,4 0.47664,2.33434 0.53395,12.95444 0.65011,120.48 0.11728,108.55469 0.0854,118.16144 -0.40125,120.96 -0.55302,3.18013 -0.79769,4.33341 -1.42563,6.72 -0.20835,0.792 -0.45482,1.90935 -0.54765,2.48298 -0.0928,0.57363 -0.29686,1.12211 -0.45341,1.21888 -0.15654,0.0967 -0.28464,0.45053 -0.28464,0.78618 0,0.33564 -0.23596,1.15513 -0.52435,1.82112 -0.28838,0.66595 -0.63117,1.49884 -0.76169,1.85084 -1.11812,3.01511 -4.75796,10.39578 -5.44445,11.04 -0.0938,0.088 -0.66506,0.952 -1.26951,1.92 -0.60444,0.968 -1.17654,1.832 -1.27132,1.92 -0.0948,0.088 -0.81191,1.024 -1.5936,2.08 -3.34874,4.52372 -9.02602,10.06404 -13.9042,13.56874 -4.36224,3.13402 -10.56681,6.6641 -14.11088,8.02829 -0.352,0.13549 -1.288,0.49683 -2.08,0.80298 -3.2096,1.24064 -5.84361,2.08 -6.52729,2.08 -0.28675,0 -0.77143,0.12793 -1.07706,0.28428 -0.62784,0.32122 -3.3848,0.91818 -6.47565,1.40218 -2.60403,0.40778 -237.30148,0.6385 -238.24,0.23421 z m 234.24,-34.19559 c 1.232,-0.23401 2.3768,-0.5559 2.544,-0.71529 0.1672,-0.1594 0.69869,-0.2898 1.18112,-0.2898 0.4824,0 0.96612,-0.144 1.07488,-0.32 0.10877,-0.176 0.39524,-0.32 0.63655,-0.32 0.92224,0 6.8503,-3.04857 7.52345,-3.86902 0.088,-0.10726 0.32308,-0.25261 0.5224,-0.32301 0.66554,-0.23504 3.12397,-2.3456 5.18109,-4.44797 4.11965,-4.21027 7.82375,-11.05308 8.74759,-16.16 0.1592,-0.88 0.41833,-2.32 0.57584,-3.2 0.31619,-1.76665 0.44505,-149.62963 0.13139,-150.8 l -0.19296,-0.72 h -26.64842 c -22.67648,0 -26.67434,0.0675 -26.82214,0.45264 -0.16874,0.43971 0.69856,3.12736 1.15718,3.58598 0.12541,0.12541 0.22803,0.55556 0.22803,0.95581 0,0.40029 0.144,0.8168 0.32,0.92557 0.176,0.10877 0.32,0.49152 0.32,0.85053 0,0.35901 0.20288,1.10649 0.45082,1.66112 0.24797,0.55459 0.5247,1.36835 0.61501,1.80835 0.0903,0.44 0.40176,1.664 0.69212,2.72 0.58832,2.13965 0.93456,3.80166 1.43332,6.88 0.18534,1.144 0.46697,2.512 0.62582,3.04 1.09914,3.65344 1.01894,26.45392 -0.10301,29.28 -0.1048,0.264 -0.34112,1.416 -0.52518,2.56 -0.68368,4.2497 -1.58451,8.1023 -1.98912,8.50688 -0.13187,0.13187 -0.23978,0.50163 -0.23978,0.8217 0,0.81757 -2.56185,8.37993 -2.9807,8.79878 -0.12061,0.12061 -0.2193,0.40736 -0.2193,0.63722 0,0.60697 -1.26896,3.32013 -5.59587,11.96435 -0.17373,0.3471 -0.42573,0.63107 -0.56,0.63107 -0.13427,0 -0.24413,0.16186 -0.24413,0.35965 0,0.19782 -0.576,1.22221 -1.28,2.27648 -0.704,1.05424 -1.28,2.03238 -1.28,2.17366 0,0.14128 -0.108,0.30487 -0.24,0.36356 -0.132,0.0587 -0.95017,1.16656 -1.81817,2.46195 -0.86797,1.29542 -1.73405,2.51942 -1.92458,2.72 -0.19056,0.20061 -0.84544,1.0127 -1.4553,1.8047 -4.23555,5.50045 -13.61494,14.36701 -18.95977,17.92307 -0.65879,0.43831 -1.19879,0.90493 -1.2,1.03693 0,0.132 -0.12026,0.24 -0.26461,0.24 -0.14432,0 -1.47632,0.80455 -2.96,1.78787 -1.48365,0.98333 -2.98557,1.92176 -3.33757,2.08544 -0.352,0.16365 -1.36,0.72464 -2.24,1.24663 -1.8615,1.10416 -7.81043,3.98025 -9.92,4.79597 -0.352,0.13612 -1.288,0.49795 -2.08,0.80409 -0.792,0.30615 -1.728,0.67114 -2.08,0.81114 -0.352,0.14 -1.432,0.50013 -2.4,0.80032 -0.968,0.30022 -2.01005,0.67245 -2.31565,0.8272 -0.30563,0.15472 -0.88163,0.28224 -1.28,0.28333 -0.3984,0 -1.1368,0.21705 -1.64093,0.48 -0.50412,0.26291 -1.33408,0.47801 -1.84435,0.47801 -0.51027,0 -1.17779,0.12794 -1.48342,0.28429 -2.01875,1.0328 -14.95741,2.55738 -21.83565,2.5729 -4.80285,0.0109 -17.6168,-1.15424 -18.46582,-1.67898 -0.17216,-0.1064 -1.16378,-0.34912 -2.20362,-0.53936 -2.67606,-0.4896 -4.1913,-0.84262 -6.21056,-1.44691 -0.968,-0.2897 -2.192,-0.64675 -2.72,-0.79351 -1.08317,-0.30099 -4.46835,-1.49836 -5.44,-1.92416 -0.352,-0.15427 -1.792,-0.74611 -3.2,-1.3152 -2.66476,-1.07708 -8.99981,-4.27116 -11.09674,-5.59488 -0.6658,-0.42032 -1.269,-0.76419 -1.34044,-0.76419 -0.33062,0 -9.42862,-6.25283 -9.80282,-6.73721 -0.088,-0.11392 -1.24,-1.10234 -2.56,-2.19645 -4.79524,-3.97472 -10.31405,-9.69898 -13.90858,-14.42634 -0.86986,-1.144 -1.66111,-2.152 -1.75832,-2.24 -0.4898,-0.44339 -1.9331,-2.55782 -1.9331,-2.83197 0,-0.17308 -0.11278,-0.36268 -0.25062,-0.42137 -0.25586,-0.1089 -3.27215,-4.83485 -4.56127,-7.14666 -2.59319,-4.6504 -5.71076,-11.66422 -6.89848,-15.52 -0.29818,-0.968 -0.66533,-1.8968 -0.81589,-2.064 -0.15056,-0.1672 -0.27374,-0.6832 -0.27374,-1.14665 0,-0.46349 -0.10298,-0.94567 -0.22884,-1.07152 -0.27805,-0.27805 -0.99077,-2.71293 -1.36925,-4.67783 -0.15256,-0.792 -0.50902,-2.448 -0.79213,-3.68 -2.33017,-10.13997 -2.33471,-27.77837 -0.01,-38.56 0.28462,-1.32 0.63588,-2.976 0.78058,-3.68 0.14469,-0.704 0.40749,-1.712 0.58399,-2.24 0.1765,-0.528 0.50036,-1.608 0.7197,-2.4 0.59308,-2.1416 1.29474,-4.24784 1.62425,-4.87565 0.16039,-0.30563 0.29162,-0.77869 0.29162,-1.05126 0,-0.27258 0.22711,-0.84221 0.50469,-1.26586 0.27757,-0.42361 0.45757,-1.10256 0.4,-1.50873 l -0.10469,-0.7385 -26.56,-0.0829 c -24.68579,-0.077 -26.58823,-0.0445 -26.96,0.46118 -0.31726,0.43152 -0.4,15.7384 -0.4,73.99824 0,65.80884 0.0536,73.82103 0.51453,76.97882 0.28299,1.93859 0.64299,3.7672 0.8,4.06365 0.15701,0.29642 0.28547,0.83837 0.28547,1.20432 0,0.36595 0.12281,0.91542 0.27291,1.22106 0.15011,0.3056 0.49057,1.05964 0.75659,1.67564 1.0842,2.51063 2.32518,4.96637 2.56035,5.06666 0.13758,0.0587 0.25015,0.24483 0.25015,0.41366 0,0.48503 2.51383,3.7786 4.46224,5.84634 0.97776,1.03766 2.80622,2.65184 4.06323,3.58707 4.80589,3.57559 8.79773,5.32771 15.15453,6.65171 3.05869,0.63709 228.47447,0.55895 231.84,-0.0804 z m -110.24,-81.00646 c 3.35261,-0.24858 5.93674,-0.67415 9.44,-1.55472 0.704,-0.17696 1.928,-0.48349 2.72,-0.68119 0.792,-0.19766 1.5768,-0.49517 1.744,-0.66105 0.1672,-0.16592 0.56515,-0.30167 0.88435,-0.30167 0.31917,0 0.83037,-0.12701 1.136,-0.28224 0.3056,-0.15523 1.99565,-0.90361 3.75565,-1.66304 1.76,-0.75945 3.73715,-1.71245 4.39363,-2.11776 0.65651,-0.40534 1.26573,-0.73696 1.35379,-0.73696 0.55357,0 7.56865,-4.93222 9.73684,-6.84589 2.51974,-2.22396 7.12621,-7.01008 8.4167,-8.74505 0.75648,-1.01699 1.44823,-1.92106 1.53722,-2.00906 0.50345,-0.49779 2.88182,-4.18224 2.88182,-4.46435 0,-0.18461 0.12992,-0.33565 0.28871,-0.33565 0.15878,0 0.44195,-0.396 0.62931,-0.88 0.18733,-0.484 0.81341,-1.75321 1.39129,-2.82048 0.57789,-1.06729 1.38916,-2.7233 1.80282,-3.68 0.41366,-0.95674 0.95366,-2.19328 1.2,-2.74787 0.24634,-0.55463 0.44787,-1.23011 0.44787,-1.50112 0,-0.27101 0.144,-0.58176 0.32,-0.69053 0.176,-0.10877 0.32,-0.59248 0.32,-1.07488 0,-0.48243 0.12883,-1.01392 0.28627,-1.18112 0.89255,-0.94774 2.91373,-13.47846 2.91373,-18.064 0,-2.10022 -0.45769,-6.49053 -1.0175,-9.76 -0.96445,-5.63299 -1.01498,-5.83469 -2.76432,-11.04 -0.26618,-0.792 -0.60416,-1.5768 -0.75107,-1.744 -0.14692,-0.1672 -0.26711,-0.55482 -0.26711,-0.86141 0,-1.25939 -6.32377,-12.57533 -8.02189,-14.35459 -0.25196,-0.264 -0.88147,-1.056 -1.39891,-1.76 -1.26163,-1.71648 -7.91741,-8.45715 -9.24173,-9.35965 -0.5808,-0.39578 -1.33545,-0.97178 -1.67699,-1.27999 -1.13693,-1.02592 -2.97366,-2.32036 -3.29245,-2.32036 -0.17309,0 -0.36269,-0.11273 -0.42137,-0.25051 -0.37629,-0.88374 -7.43552,-4.55237 -12.74666,-6.62434 -0.792,-0.30897 -1.728,-0.67768 -2.08,-0.81936 -0.352,-0.14167 -1,-0.3319 -1.44,-0.42273 -1.27629,-0.26346 -3.62342,-0.90582 -4.32,-1.1823 -0.352,-0.13971 -1.288,-0.33141 -2.08,-0.42601 -0.792,-0.0946 -2.16,-0.33647 -3.04,-0.53752 -2.25126,-0.51431 -15.46451,-0.50378 -17.92,0.0143 -1.056,0.22279 -2.64,0.5202 -3.52,0.66091 -2.4433,0.39068 -4.76582,0.98281 -5.104,1.30128 -0.1672,0.15746 -0.69869,0.28629 -1.18112,0.28629 -0.4824,0 -0.96611,0.144 -1.07488,0.32 -0.10877,0.176 -0.41952,0.32 -0.69053,0.32 -0.27101,0 -1.01849,0.23068 -1.66112,0.51263 -0.64259,0.28194 -1.45635,0.62155 -1.80835,0.75467 -1.71315,0.64792 -8.98,4.35271 -9.44,4.8127 -0.088,0.088 -1.168,0.83518 -2.4,1.66039 -1.232,0.82522 -2.52813,1.76122 -2.88026,2.08 -0.35216,0.31879 -1.19433,0.99375 -1.87151,1.49993 -1.57486,1.17715 -6.47478,6.03517 -7.84163,7.77456 -0.57693,0.73418 -1.40369,1.74218 -1.83723,2.24 -0.43354,0.49782 -1.24728,1.62512 -1.80831,2.50512 -0.56103,0.88 -1.10729,1.672 -1.2139,1.76 -0.10661,0.088 -0.29324,0.376 -0.41472,0.64 -0.12148,0.264 -0.64843,1.2 -1.17099,2.08 -1.7484,2.94432 -4.09236,7.94074 -4.8039,10.24 -0.21787,0.704 -0.52062,1.52714 -0.67279,1.82918 -0.2882,0.57207 -0.77998,2.37991 -1.24336,4.57082 -0.1489,0.704 -0.41196,1.856 -0.58459,2.56 -0.17262,0.704 -0.47202,2.15267 -0.66533,3.21926 -0.43544,2.40247 -0.46519,16.27517 -0.0389,18.13613 0.17192,0.75053 0.46743,2.15661 0.65669,3.12461 0.74269,3.79869 0.88628,4.39504 1.57959,6.56 0.71634,2.23693 0.99454,2.9913 1.77022,4.8 0.22643,0.528 0.65181,1.536 0.94529,2.24 1.32339,3.17459 4.6794,9.10199 5.85716,10.34496 0.22146,0.23373 0.55688,0.71312 0.74537,1.06531 0.18849,0.3522 0.58355,0.9384 0.8779,1.30272 3.69734,4.57578 7.03378,7.96599 10.7752,10.9488 1.232,0.98221 2.41392,1.92813 2.62649,2.10202 0.21258,0.17392 0.52458,0.31619 0.69335,0.31619 0.16873,0 0.35481,0.11277 0.4135,0.25063 0.28973,0.68076 8.3488,5.17945 11.62666,6.49017 0.352,0.14077 1.144,0.46448 1.76,0.71943 1.62899,0.67411 5.39818,1.86608 6.88,2.17571 0.704,0.1471 2.36,0.50019 3.68,0.7847 4.4392,0.95671 11.42096,1.25984 17.92,0.77799 z m 131.7648,-140.2453 c 0.32234,-0.25455 0.38752,-6.44046 0.32,-30.36822 -0.0742,-26.29133 -0.14483,-30.08841 -0.5648,-30.36728 -0.45408,-0.30153 -59.42646,-0.10988 -60.4,0.19628 -0.57654,0.18132 -0.58726,60.31063 -0.0109,60.88704 0.5,0.5 60.01421,0.15873 60.65565,-0.34782 z"
         id="path1103" />
    </g>
  </g>
</svg>
