<?xml version="1.0" encoding="UTF-8" standalone="no"?>
<!-- Created with Inkscape (http://www.inkscape.org/) -->

<svg
   version="1.1"
   id="svg775"
   width="1306.6667"
   height="1306.6667"
   viewBox="0 0 1306.6667 1306.6667"
   sodipodi:docname="twitter2.svg"
   inkscape:version="1.1.1 (3bf5ae0d25, 2021-09-20)"
   xmlns:inkscape="http://www.inkscape.org/namespaces/inkscape"
   xmlns:sodipodi="http://sodipodi.sourceforge.net/DTD/sodipodi-0.dtd"
   xmlns="http://www.w3.org/2000/svg"
   xmlns:svg="http://www.w3.org/2000/svg">
  <defs
     id="defs779" />
  <sodipodi:namedview
     id="namedview777"
     pagecolor="#ffffff"
     bordercolor="#666666"
     borderopacity="1.0"
     inkscape:pageshadow="2"
     inkscape:pageopacity="0.0"
     inkscape:pagecheckerboard="0"
     showgrid="false"
     inkscape:zoom="0.50127548"
     inkscape:cx="-20.946566"
     inkscape:cy="874.7685"
     inkscape:window-width="1600"
     inkscape:window-height="840"
     inkscape:window-x="0"
     inkscape:window-y="0"
     inkscape:window-maximized="1"
     inkscape:current-layer="g781" />
  <g
     inkscape:groupmode="layer"
     inkscape:label="Image"
     id="g781">
    <g
       id="g803"
       style="fill:#e882e8;fill-opacity:1">
      <path
         style="fill:#e882e8;fill-opacity:1;stroke-width:1.33333"
         d="m 617.33335,1305.8798 c -32.64788,-2.7345 -41.81192,-3.6851 -57.9974,-6.0158 -119.10397,-17.1513 -230.18363,-66.7627 -324.66928,-145.0067 -20.24245,-16.7629 -66.87468,-63.4309 -83.45993,-83.5239 C 66.797202,969.07097 17.582194,851.86857 3.1168179,718.66669 -0.24068994,687.74966 -0.23862182,618.8834 3.1207419,588.00001 13.426239,493.25925 40.704444,408.16277 86.085818,329.184 152.10582,214.28713 252.12345,121.06253 369.9635,64.586842 440.88218,30.598554 511.86171,10.957505 594.66668,2.4082547 620.29131,-0.23737599 691.45552,0.17521542 718.66669,3.1271742 821.82885,14.318552 914.22888,45.915055 999.036,99.000395 c 49.4521,30.954725 91.8669,66.087805 133.2007,110.332945 90.034,96.37556 148.8288,219.1594 167.6301,350.06962 5.0513,35.17126 6.0998,51.31711 6.0998,93.93039 0,42.61328 -1.0485,58.75913 -6.0998,93.93039 -17.066,118.82775 -66.4231,229.59206 -144.4068,324.06966 -16.9934,20.5874 -63.5392,67.1332 -84.1266,84.1266 -101.83166,84.0539 -220.17316,133.8719 -351.33338,147.9001 -19.34575,2.0691 -87.94563,3.7527 -102.66667,2.5197 z m 109.33334,-63.093 c 113.8329,-15.3564 210.96416,-56.6758 300.00001,-127.6193 20.8613,-16.6222 66.1768,-61.309 83.4405,-82.2829 68.8589,-83.65731 113.9867,-183.52323 129.94,-287.55125 8.9592,-58.42099 8.9592,-125.57901 0,-184 -15.7154,-102.47706 -59.1395,-199.71753 -126.5111,-283.29918 -15.823,-19.63004 -51.8563,-56.75471 -71.4548,-73.6189 C 951.60656,126.56332 846.1745,79.641002 726.00002,63.743956 705.94658,61.091226 697.56888,60.74554 653.33335,60.74554 c -44.18127,0 -52.63783,0.348063 -72.66667,2.990882 -131.69511,17.377249 -247.39343,72.975208 -340.44222,163.596918 -12.80055,12.46667 -28.91807,29.23011 -35.81671,37.25209 -77.76997,90.43369 -124.791583,196.0945 -140.663794,316.08125 -2.65273,20.05344 -2.998416,28.43114 -2.998416,72.66667 0,44.23553 0.345686,52.61323 2.998416,72.66667 12.599727,95.24825 43.722544,178.78947 95.619754,256.66667 24.81045,37.23071 46.59782,63.27271 81.02472,96.84721 92.4347,90.1462 211.61337,147.3681 339.61158,163.0596 31.2757,3.8341 30.69401,3.8097 80.66667,3.3858 36.91046,-0.3131 49.17318,-0.9025 66.00001,-3.1725 z M 491.33335,953.75734 c -52.99261,-4.58129 -110.66082,-22.11888 -155.82435,-47.388 -13.68162,-7.65489 -33.16141,-19.84822 -32.56615,-20.38472 0.21477,-0.19357 6.69049,0.22328 14.39049,0.92634 35.61907,3.25221 81.47791,-3.58488 117.5544,-17.52618 24.53685,-9.48194 52.5855,-25.24 72.62757,-40.803 l 7.32078,-5.68471 -9.0847,-0.94213 c -24.22223,-2.512 -49.63767,-12.42589 -69.1989,-26.99267 -12.35764,-9.20244 -27.22343,-24.52137 -35.21265,-36.28601 -6.44616,-9.49241 -18.23494,-33.48508 -19.45827,-39.60179 l -0.81857,-4.09288 7.13517,1.31681 c 8.61677,1.59026 40.55388,0.49 49.74377,-1.7137 l 6.60862,-1.58472 -14.31066,-5.03572 c -46.5899,-16.3943 -81.65745,-55.34702 -94.79513,-105.29758 -3.39916,-12.9239 -7.04416,-40.84504 -5.52985,-42.35936 0.46058,-0.46057 4.86814,1.15992 9.79458,3.60111 12.35564,6.12256 25.58276,10.48673 38.7985,12.80122 16.7939,2.94114 17.39721,2.74939 9.94508,-3.16089 -14.51006,-11.50791 -31.01635,-32.17041 -40.11471,-50.21541 -11.54084,-22.88924 -16.85964,-46.18978 -16.89196,-74.00001 -0.0235,-20.17028 1.81207,-32.54178 7.3152,-49.30516 3.73065,-11.36413 10.73749,-26.87593 11.92807,-26.40641 0.52753,0.20803 4.785,5.17824 9.46104,11.04491 19.84876,24.90269 54.92336,57.9896 82.11984,77.46608 56.84133,40.70635 127.40313,67.92077 189.72946,73.17527 5.5,0.46369 11.42809,1.1401 13.17354,1.50314 2.77204,0.57659 3.06904,0.27183 2.34756,-2.40886 -2.61749,-9.72543 -3.80177,-33.44647 -2.35816,-47.23379 4.05166,-38.6954 19.09331,-70.17547 45.93084,-96.12676 26.56411,-25.68688 58.71991,-38.9801 94.39823,-39.02423 38.08578,-0.0471 70.93305,13.17501 98.80263,39.77137 l 10.29464,9.82434 16.09672,-4.12276 c 20.00011,-5.12252 43.09859,-14.05768 60.98067,-23.5891 7.51667,-4.00649 13.66667,-6.93936 13.66667,-6.51748 0,0.42188 -2.05356,5.72792 -4.56345,11.79119 -10.36485,25.03881 -25.7977,45.34639 -46.76989,61.54295 -3.66666,2.83172 -7.26666,5.70138 -8,6.37705 -2.43561,2.24405 15.52692,-0.51136 33.72382,-5.17317 9.7481,-2.49734 23.69811,-6.88586 31,-9.75227 7.30191,-2.86641 13.27616,-4.9034 13.27616,-4.52664 0,1.30711 -12.51985,18.4094 -20.75896,28.357 -9.60798,11.60034 -34.38763,35.88771 -43.53312,42.6683 l -6.29211,4.66504 -0.0412,20.43721 c -0.23824,118.08788 -49.18687,236.75406 -131.26654,318.22946 -65.32082,64.83994 -147.77125,102.94756 -240.77472,111.28327 -14.11574,1.26516 -57.4542,1.55865 -70,0.47405 z"
         id="path807" />
      <path
         style="fill:#e882e8;fill-opacity:1;stroke-width:1.33333"
         d="M 616.85876,1305.3146 C 464.03259,1295.7477 324.27683,1236.855 212.60171,1134.9618 32.182165,970.34565 -40.774617,717.88283 23.52331,480.66668 45.14936,400.88109 86.282714,318.7929 137.77124,252.66667 230.91785,133.03939 363.05064,49.250264 510.66668,16.203182 626.88194,-9.8141487 749.81769,-3.329764 862.93374,34.783906 901.90813,47.916053 952.44089,71.336288 988.66669,93.056897 1137.5149,182.3047 1245.24,327.69258 1286.715,495.30875 c 30.2193,122.12757 25.2607,246.58915 -14.5762,365.86227 -81.5162,244.06268 -300.55254,417.89088 -557.03126,442.06238 -27.39558,2.5819 -74.35896,3.5767 -98.24878,2.0812 z m 96.11111,-60.6591 c 177.32114,-18.2349 335.83723,-113.6152 434.30133,-261.32214 39.9227,-59.88854 66.9316,-121.16199 83.4962,-189.42323 11.8858,-48.98008 16.3346,-87.26705 16.3346,-140.57678 0,-26.97761 -0.671,-44.18801 -2.3132,-59.33333 C 1230.5971,463.11579 1179.4899,349.24284 1091.11,251.58475 1042.7504,198.14846 976.63372,149.11302 910.00002,117.26466 759.28005,45.226268 585.50236,39.759254 430.92281,102.19298 294.11631,157.44828 180.78055,263.85617 117.24554,396.69612 56.825267,523.02371 42.874921,667.39719 78.01791,802.66669 c 47.17258,181.5728 178.86434,331.51311 352.9049,401.80701 58.15494,23.4884 121.77895,37.9593 185.40453,42.1689 23.33752,1.5441 72.04212,0.5427 96.64253,-1.9871 z M 498.66668,953.86913 c -55.15102,-4.85161 -96.0051,-15.56164 -142.3508,-37.31771 -13.22748,-6.20937 -42.10041,-22.48705 -48.67403,-27.44094 -1.98794,-1.49811 2.40814,-1.7859 28,-1.83299 33.26551,-0.0612 44.90911,-1.46585 72.19125,-8.70889 34.00859,-9.02883 66.31789,-24.94135 97.83358,-48.18365 4.95,-3.65054 9,-7.09162 9,-7.64685 0,-0.55523 -4.65,-1.37809 -10.33333,-1.82861 -15.3934,-1.22022 -29.94147,-5.48256 -46.33334,-13.57495 -32.61928,-16.10357 -58.11951,-43.96643 -72.20285,-78.89253 -2.53144,-6.27787 -4.34532,-11.67159 -4.03086,-11.98606 0.31447,-0.31448 5.89571,0.0907 12.40274,0.90021 13.19909,1.64221 26.86472,0.89799 41.83097,-2.27804 l 10,-2.12213 -12.66667,-4.28049 C 410.6357,701.00519 392.30238,689.72768 375.95404,673.37932 349.288,646.7133 330.66668,603.62114 330.66668,568.57852 V 560.173 l 11.00733,5.1582 c 14.00439,6.56268 32.00201,11.78843 44.16496,12.82363 l 9.49437,0.80808 -5.33333,-4.38307 c -29.82544,-24.51131 -50.79287,-61.56971 -56.84973,-100.47773 -2.23103,-14.33168 -0.68414,-49.59651 2.75336,-62.76877 1.53098,-5.86666 3.45845,-12.46666 4.28324,-14.66666 3.2877,-8.76947 9.59553,-22 10.48877,-22 0.52115,0 5.96816,6.15 12.10448,13.66666 55.22068,67.64242 135.18672,118.43721 217.88655,138.4025 24.36936,5.88323 65.03336,12.00859 66.95611,10.08584 0.37196,-0.37196 0.009,-4.50815 -0.80657,-9.19153 -2.1224,-12.1877 -1.82916,-39.96172 0.56698,-53.70226 10.02559,-57.49096 50.93944,-102.96728 105.79165,-117.58891 11.14462,-2.97076 15.53324,-3.41873 33.49184,-3.41873 18.13644,0 22.29524,0.43337 33.96869,3.53969 23.99473,6.38504 45.7171,18.69259 65.26344,36.97724 l 9.05108,8.46684 14.85839,-3.76894 c 23.59699,-5.98556 53.44893,-18.15602 71.16516,-29.0136 l 4.30676,-2.63946 -1.80262,5.09234 c -9.80587,27.70098 -31.17426,56.4644 -53.22707,71.64752 -4.1715,2.87202 -7.35658,5.44982 -7.07796,5.72844 0.90678,0.90678 25.17149,-3.43306 38.35662,-6.86022 7.07438,-1.83882 19.07438,-5.68512 26.66667,-8.54733 7.5923,-2.86221 14.02655,-5.00787 14.29835,-4.76811 0.7913,0.69798 -11.45555,17.35807 -21.98627,29.90934 -10.67957,12.72867 -29.12191,30.67317 -39.84384,38.76831 l -6.91133,5.2181 -0.8513,26.99814 c -0.46821,14.84897 -1.47048,32.39813 -2.22725,38.99813 -10.67885,93.13279 -47.25367,179.20202 -105.38944,248.00639 -12.81106,15.16204 -42.39411,43.69083 -57.28475,55.24326 -58.56187,45.43339 -122.48268,71.29312 -198.00001,80.10267 -12.70897,1.48257 -61.21136,2.74054 -71.33333,1.85013 z"
         id="path805" />
    </g>
  </g>
</svg>
